<?xml version="1.0" encoding="UTF-8" standalone="no"?>
<svg width="18px" height="16px" viewBox="0 0 28 26" version="1.1" xmlns="http://www.w3.org/2000/svg" xmlns:xlink="http://www.w3.org/1999/xlink">
    <!-- Generator: Sketch 45.2 (43514) - http://www.bohemiancoding.com/sketch -->
    <title>heart copy</title>
    <desc>Created with Sketch.</desc>
    <defs></defs>
    <g id="Page-1" stroke="none" stroke-width="1" fill="none" fill-rule="evenodd">
        <g id="sun" transform="translate(-257.000000, -571.000000)" fill="#FA1717">
            <path d="M270.999417,596.252441 C270.932273,596.252441 270.869926,596.245248 270.812374,596.23086 C270.754823,596.216472 270.697272,596.19489 270.63972,596.166114 C270.601352,596.14693 270.385536,596.019838 269.992265,595.784835 C269.598994,595.549832 269.088229,595.221311 268.459954,594.799265 C267.83168,594.377218 267.119487,593.864055 266.323353,593.25976 C265.527219,592.655466 264.711913,591.979242 263.877411,591.231068 C263.378629,590.780245 262.908629,590.329429 262.467398,589.878606 C262.026167,589.427783 261.608923,588.976967 261.215652,588.526145 C260.822381,588.075322 260.455493,587.622108 260.114978,587.166489 C259.774463,586.71087 259.465127,586.257656 259.186959,585.806833 C258.822464,585.231315 258.503536,584.653407 258.230165,584.073093 C257.956793,583.492778 257.728987,582.917268 257.54674,582.346546 C257.364492,581.775823 257.227809,581.205109 257.136685,580.634387 C257.045561,580.063664 257,579.500144 257,578.94381 C257,577.879101 257.203826,576.876754 257.611485,575.936741 C258.019144,574.996727 258.573072,574.176626 259.273287,573.476412 C259.973501,572.776197 260.791204,572.222269 261.726422,571.81461 C262.661639,571.406951 263.666384,571.203125 264.740685,571.203125 C265.095588,571.203125 265.457679,571.236696 265.82697,571.30384 C266.196262,571.370984 266.563149,571.4693 266.927644,571.598792 C267.292139,571.728284 267.654231,571.886549 268.01393,572.073592 C268.373629,572.260636 268.721333,572.47885 269.057052,572.728241 C269.450323,573.016001 269.810016,573.330133 270.136144,573.670648 C270.462271,574.011163 270.750026,574.363663 270.999417,574.728158 C271.239216,574.363663 271.524573,574.011163 271.855496,573.670648 C272.186419,573.330133 272.548511,573.016001 272.941782,572.728241 C273.277501,572.47885 273.622807,572.260636 273.97771,572.073592 C274.332613,571.886549 274.692307,571.728284 275.056802,571.598792 C275.421297,571.4693 275.788184,571.370984 276.157475,571.30384 C276.526766,571.236696 276.893654,571.203125 277.258149,571.203125 C278.322858,571.203125 279.325205,571.406951 280.265218,571.81461 C281.205232,572.222269 282.025333,572.776197 282.725547,573.476412 C283.425761,574.176626 283.97969,574.996727 284.387349,575.936741 C284.795007,576.876754 284.998834,577.879101 284.998834,578.94381 C284.998834,579.500144 284.950875,580.063664 284.854955,580.634387 C284.759035,581.205109 284.619954,581.775823 284.437706,582.346546 C284.255459,582.917268 284.030051,583.492778 283.761475,584.073093 C283.4929,584.653407 283.17637,585.231315 282.811875,585.806833 C282.524115,586.257656 282.212381,586.71087 281.876662,587.166489 C281.540943,587.622108 281.176453,588.075322 280.783182,588.526145 C280.389911,588.976967 279.970269,589.427783 279.524242,589.878606 C279.078215,590.329429 278.610613,590.780245 278.121422,591.231068 C277.286921,591.979242 276.471615,592.655466 275.675481,593.25976 C274.879347,593.864055 274.167154,594.377218 273.538879,594.799265 C272.910605,595.221311 272.397442,595.549832 271.999375,595.784835 C271.601308,596.019838 271.38789,596.14693 271.359114,596.166114 C271.301562,596.19489 271.241613,596.216472 271.179266,596.23086 C271.116918,596.245248 271.056969,596.252441 270.999417,596.252441 L270.999417,596.252441 Z" id="heart-copy"></path>
        </g>
    </g>
</svg>
